<?xml version="1.0" encoding="UTF-8"?>
<svg version="1.1" xmlns="http://www.w3.org/2000/svg" width="129" height="122">
<path d="M0 0 C42.57 0 85.14 0 129 0 C129 40.26 129 80.52 129 122 C86.43 122 43.86 122 0 122 C0 81.74 0 41.48 0 0 Z " fill="#FBFBFB" transform="translate(0,0)"/>
<path d="M0 0 C0.83712524 -0.00137466 1.67425049 -0.00274933 2.53674316 -0.00416565 C3.45168045 -0.00057037 4.36661774 0.0030249 5.3092804 0.00672913 C6.27532196 0.0065831 7.24136353 0.00643707 8.23667908 0.00628662 C11.43448623 0.00698411 14.63223536 0.01476889 17.83003235 0.02259827 C20.0453488 0.02446303 22.26066566 0.02588666 24.47598267 0.02688599 C30.31048214 0.03070659 36.14495677 0.040533 41.97944641 0.05158997 C47.93159143 0.06181389 53.88374046 0.06638571 59.83589172 0.07142639 C71.51754327 0.08215565 83.19917637 0.09922663 94.8808136 0.12025452 C94.17668925 3.07055867 93.27099781 5.67190681 92.0058136 8.43275452 C90.73345007 11.23011694 89.49275058 14.03047834 88.3183136 16.87025452 C86.8808136 20.12025452 86.8808136 20.12025452 85.40815735 22.49916077 C83.90495566 25.07882403 82.94911335 27.48202914 82.0058136 30.30775452 C80.05858314 35.83729444 77.58481852 40.92891174 74.8808136 46.12025452 C74.21265701 47.49453113 73.54590065 48.86948976 72.8808136 50.24525452 C71.18480809 53.67173718 69.19323464 56.8184188 67.0292511 59.96791077 C65.72143448 62.23524194 65.72143448 62.23524194 64.9433136 65.43275452 C63.8371617 69.27175227 62.33351799 72.51009251 60.5058136 76.05775452 C59.62796204 77.77285217 59.62796204 77.77285217 58.7323761 79.52259827 C58.12136047 80.70982483 57.51034485 81.89705139 56.8808136 83.12025452 C55.5608136 85.76025452 54.2408136 88.40025452 52.8808136 91.12025452 C67.0708136 91.12025452 81.2608136 91.12025452 95.8808136 91.12025452 C92.79165284 98.84315642 88.93841062 105.81657988 84.8808136 113.12025452 C65.7408136 113.12025452 46.6008136 113.12025452 26.8808136 113.12025452 C27.77425956 108.6530247 28.85881322 106.08648602 30.8808136 102.12025452 C31.3139386 100.92400452 31.7470636 99.72775452 32.1933136 98.49525452 C34.27207768 92.808273 37.12583455 87.50237136 39.8808136 82.12025452 C44.58534088 73.21382764 44.58534088 73.21382764 48.4433136 63.93275452 C49.88739262 59.80060069 52.00914109 56.12425503 54.13471985 52.30775452 C59.12498818 43.19800293 63.86705891 34.02207337 67.18940735 24.15931702 C67.8808136 22.12025452 67.8808136 22.12025452 68.8808136 20.12025452 C59.54478645 20.18142255 50.20906652 20.25849707 40.87334728 20.35596943 C36.53853394 20.40072656 32.20381574 20.43997068 27.86885071 20.46669006 C23.68655353 20.49267006 19.50462145 20.53303421 15.32254982 20.58344078 C13.72578276 20.60014555 12.1289525 20.61163731 10.53211021 20.61786842 C8.29793762 20.62747069 6.06470669 20.65548114 3.83076477 20.68788147 C2.55835434 20.69898453 1.28594391 20.71008759 -0.02502441 20.7215271 C-3.08960821 20.858365 -3.08960821 20.858365 -4.99105835 22.52227783 C-7.44285926 25.99521753 -7.28442264 28.64904541 -7.3066864 32.87025452 C-7.32795593 34.68783264 -7.32795593 34.68783264 -7.34965515 36.54212952 C-7.24040673 40.6052437 -7.24040673 40.6052437 -5.1191864 46.12025452 C-0.1691864 46.45025452 4.7808136 46.78025452 9.8808136 47.12025452 C9.8808136 47.78025452 9.8808136 48.44025452 9.8808136 49.12025452 C12.8508136 49.61525452 12.8508136 49.61525452 15.8808136 50.12025452 C15.8808136 50.78025452 15.8808136 51.44025452 15.8808136 52.12025452 C16.5820636 52.28525452 17.2833136 52.45025452 18.0058136 52.62025452 C22.86212702 55.15398326 25.80660729 59.22346119 27.70503235 64.34291077 C30.55611155 76.45494228 29.83288535 89.67240963 24.8808136 101.12025452 C22.8651886 103.51478577 22.8651886 103.51478577 20.8808136 105.12025452 C20.2208136 105.12025452 19.5608136 105.12025452 18.8808136 105.12025452 C18.8808136 106.11025452 18.8808136 107.10025452 18.8808136 108.12025452 C16.23342444 109.58088302 14.98633026 110.12025452 11.8808136 110.12025452 C11.8808136 111.11025452 11.8808136 112.10025452 11.8808136 113.12025452 C-1.9791864 113.12025452 -15.8391864 113.12025452 -30.1191864 113.12025452 C-28.36994051 106.12327094 -25.33966666 99.56121504 -22.1191864 93.12025452 C-11.5591864 93.12025452 -0.9991864 93.12025452 9.8808136 93.12025452 C9.8808136 92.46025452 9.8808136 91.80025452 9.8808136 91.12025452 C10.5408136 91.12025452 11.2008136 91.12025452 11.8808136 91.12025452 C14.09819719 86.83331291 15.01894741 83.52256402 15.0058136 78.68275452 C15.00839172 77.73529358 15.01096985 76.78783264 15.0136261 75.81166077 C14.8933486 73.37427267 14.77970268 71.38814135 13.8808136 69.12025452 C10.41369249 67.96454748 7.339318 67.79190159 3.6933136 67.55775452 C1.78485657 67.43207092 1.78485657 67.43207092 -0.16215515 67.30384827 C-1.13797546 67.24326233 -2.11379578 67.18267639 -3.1191864 67.12025452 C-3.1191864 65.47025452 -3.1191864 63.82025452 -3.1191864 62.12025452 C-4.0060614 62.05837952 -4.8929364 61.99650452 -5.8066864 61.93275452 C-9.93530267 60.92007505 -11.33497781 59.27080634 -14.1191864 56.12025452 C-14.79207703 55.50279358 -15.46496765 54.88533264 -16.1582489 54.24916077 C-22.11259244 47.78478381 -21.67909837 37.33551756 -21.4082489 29.01087952 C-20.83107662 21.24245264 -19.80626011 15.57223265 -14.1191864 10.12025452 C-13.6241864 9.06837952 -13.1291864 8.01650452 -12.6191864 6.93275452 C-11.1191864 4.12025452 -11.1191864 4.12025452 -8.9316864 3.24525452 C-8.0344989 3.18337952 -8.0344989 3.18337952 -7.1191864 3.12025452 C-7.1191864 2.46025452 -7.1191864 1.80025452 -7.1191864 1.12025452 C-4.38489124 0.2088228 -2.80997311 -0.00356144 0 0 Z " fill="#232021" transform="translate(31.119186401367188,2.8797454833984375)"/>
<path d="M0 0 C0.66 0.33 1.32 0.66 2 1 C2 1.99 2 2.98 2 4 C2.99 4.33 3.98 4.66 5 5 C4.835 5.928125 4.67 6.85625 4.5 7.8125 C3.92251612 10.95621353 3.92251612 10.95621353 4 14 C2.78234446 19.02132209 0.98748178 23.35180938 -1.375 27.9375 C-1.96023437 29.08089844 -2.54546875 30.22429687 -3.1484375 31.40234375 C-3.75945312 32.58957031 -4.37046875 33.77679688 -5 35 C-6.32 37.64 -7.64 40.28 -9 43 C5.19 43 19.38 43 34 43 C30.91083924 50.7229019 27.05759702 57.69632537 23 65 C3.86 65 -15.28 65 -35 65 C-34.10655404 60.53277019 -33.02200038 57.96623151 -31 54 C-30.566875 52.80375 -30.13375 51.6075 -29.6875 50.375 C-27.60873592 44.68801848 -24.75497905 39.38211685 -22 34 C-17.25024377 24.96272142 -17.25024377 24.96272142 -13.3125 15.5625 C-11.84080565 11.56790106 -10.44541409 8.49344869 -8 5 C-4.875 3.75 -4.875 3.75 -2 3 C-1.34 2.01 -0.68 1.02 0 0 Z " fill="#747475" transform="translate(93,51)"/>
<path d="M0 0 C2.01822917 0.06510417 4.03645833 0.13020833 6.0546875 0.1953125 C10.34207209 13.8996311 10.85065813 27.79660261 5.0546875 41.1953125 C3.0390625 43.58984375 3.0390625 43.58984375 1.0546875 45.1953125 C0.3946875 45.1953125 -0.2653125 45.1953125 -0.9453125 45.1953125 C-0.9453125 46.1853125 -0.9453125 47.1753125 -0.9453125 48.1953125 C-3.59270166 49.655941 -4.83979584 50.1953125 -7.9453125 50.1953125 C-7.9453125 51.1853125 -7.9453125 52.1753125 -7.9453125 53.1953125 C-21.8053125 53.1953125 -35.6653125 53.1953125 -49.9453125 53.1953125 C-48.19606661 46.19832893 -45.16579276 39.63627302 -41.9453125 33.1953125 C-31.3853125 33.1953125 -20.8253125 33.1953125 -9.9453125 33.1953125 C-9.9453125 32.5353125 -9.9453125 31.8753125 -9.9453125 31.1953125 C-9.2853125 31.1953125 -8.6253125 31.1953125 -7.9453125 31.1953125 C-5.72792891 26.90837089 -4.80717869 23.597622 -4.8203125 18.7578125 C-4.81773438 17.81035156 -4.81515625 16.86289063 -4.8125 15.88671875 C-4.93057775 13.49390791 -5.26418615 11.48195097 -5.9453125 9.1953125 C-6.6053125 9.1953125 -7.2653125 9.1953125 -7.9453125 9.1953125 C-6.71076349 5.49166547 -4.2844834 0.43016902 0 0 Z " fill="#525252" transform="translate(50.9453125,62.8046875)"/>
<path d="M0 0 C2.01822917 0.06510417 4.03645833 0.13020833 6.0546875 0.1953125 C10.34207209 13.8996311 10.85065813 27.79660261 5.0546875 41.1953125 C3.0390625 43.58984375 3.0390625 43.58984375 1.0546875 45.1953125 C0.3946875 45.1953125 -0.2653125 45.1953125 -0.9453125 45.1953125 C-0.9453125 46.1853125 -0.9453125 47.1753125 -0.9453125 48.1953125 C-3.59270166 49.655941 -4.83979584 50.1953125 -7.9453125 50.1953125 C-7.9453125 51.1853125 -7.9453125 52.1753125 -7.9453125 53.1953125 C-8.9353125 53.1953125 -9.9253125 53.1953125 -10.9453125 53.1953125 C-10.9453125 46.9253125 -10.9453125 40.6553125 -10.9453125 34.1953125 C-11.9353125 33.8653125 -12.9253125 33.5353125 -13.9453125 33.1953125 C-12.6253125 33.1953125 -11.3053125 33.1953125 -9.9453125 33.1953125 C-9.9453125 32.5353125 -9.9453125 31.8753125 -9.9453125 31.1953125 C-9.2853125 31.1953125 -8.6253125 31.1953125 -7.9453125 31.1953125 C-5.72792891 26.90837089 -4.80717869 23.597622 -4.8203125 18.7578125 C-4.81773438 17.81035156 -4.81515625 16.86289063 -4.8125 15.88671875 C-4.93057775 13.49390791 -5.26418615 11.48195097 -5.9453125 9.1953125 C-6.6053125 9.1953125 -7.2653125 9.1953125 -7.9453125 9.1953125 C-6.71076349 5.49166547 -4.2844834 0.43016902 0 0 Z " fill="#6E6E6E" transform="translate(50.9453125,62.8046875)"/>
<path d="M0 0 C6.93 0.495 6.93 0.495 14 1 C14 1.66 14 2.32 14 3 C16.97 3.495 16.97 3.495 20 4 C20 4.66 20 5.32 20 6 C20.7425 6.226875 21.485 6.45375 22.25 6.6875 C25.5425747 8.2589561 26.97497109 9.99995716 29 13 C29 13.66 29 14.32 29 15 C27.88625 14.95875 26.7725 14.9175 25.625 14.875 C21.95633975 14.58878141 21.95633975 14.58878141 20 17 C19.690625 17.680625 19.38125 18.36125 19.0625 19.0625 C18 21 18 21 15 22 C12.60129387 21.91343435 10.20462719 21.76001509 7.8125 21.5625 C6.54019531 21.46066406 5.26789062 21.35882813 3.95703125 21.25390625 C2.98121094 21.17011719 2.00539063 21.08632812 1 21 C0.67 18.36 0.34 15.72 0 13 C-0.99 13 -1.98 13 -3 13 C-3.34657691 7.2237182 -2.76742952 5.53485905 0 0 Z " fill="#404040" transform="translate(27,49)"/>
<path d="M0 0 C0.66 0.33 1.32 0.66 2 1 C2 1.99 2 2.98 2 4 C2.99 4.33 3.98 4.66 5 5 C4.835 5.928125 4.67 6.85625 4.5 7.8125 C3.92251612 10.95621353 3.92251612 10.95621353 4 14 C2.764673 19.25013975 1.07525315 24.51297584 -2 29 C-2.99 29.33 -3.98 29.66 -5 30 C-5.515625 30.515625 -6.03125 31.03125 -6.5625 31.5625 C-7.036875 32.036875 -7.51125 32.51125 -8 33 C-8.66 33 -9.32 33 -10 33 C-11.32 30.69 -12.64 28.38 -14 26 C-14.99 26.33 -15.98 26.66 -17 27 C-16.45276317 23.62537285 -15.9451 21.91765 -14 19 C-13.71125 17.9275 -13.4225 16.855 -13.125 15.75 C-11.84218436 11.47394786 -10.57666894 8.650281 -8 5 C-4.875 3.75 -4.875 3.75 -2 3 C-1.34 2.01 -0.68 1.02 0 0 Z " fill="#525252" transform="translate(93,51)"/>
<path d="M0 0 C0.33 0 0.66 0 1 0 C1.1953125 2.05078125 1.390625 4.1015625 1.5859375 6.15234375 C1.72257813 6.76207031 1.85921875 7.37179688 2 8 C2.66 8.33 3.32 8.66 4 9 C3.67 9.99 3.34 10.98 3 12 C4.37249963 14.67676547 4.37249963 14.67676547 6 17 C6.4021875 15.7934375 6.4021875 15.7934375 6.8125 14.5625 C7.204375 13.716875 7.59625 12.87125 8 12 C8.99 11.67 9.98 11.34 11 11 C11.33 8.69 11.66 6.38 12 4 C12.33 4 12.66 4 13 4 C13.03738281 4.71285156 13.07476562 5.42570312 13.11328125 6.16015625 C13.50369789 12.67903312 13.50369789 12.67903312 15.6875 18.75 C17.37666323 22.93268989 16.49076981 24.84153684 15 29 C15 30.32 15 31.64 15 33 C15.99 33.33 16.98 33.66 18 34 C18 34.99 18 35.98 18 37 C12.59039445 36.62258566 10.54481497 35.01123799 7 31 C6.32710937 30.38253906 5.65421875 29.76507813 4.9609375 29.12890625 C-1.85057554 21.73393691 -0.31718249 9.36275718 0 0 Z " fill="#252223" transform="translate(10,28)"/>
<path d="M0 0 C0.99 0 1.98 0 3 0 C5 5.625 5 5.625 5 9 C5.33 7.35 5.66 5.7 6 4 C7.47138232 6.33690133 8.05262137 7.56148861 7.71875 10.34375 C6.95956543 13.14943212 5.89691495 15.30529995 4.4375 17.8125 C3.98246094 18.60269531 3.52742188 19.39289062 3.05859375 20.20703125 C2.70925781 20.79871094 2.35992187 21.39039062 2 22 C1.01 22 0.02 22 -1 22 C-0.773125 21.071875 -0.54625 20.14375 -0.3125 19.1875 C0.35347926 16.04478322 0.35347926 16.04478322 -1.375 14.125 C-2.80762811 12.90513167 -2.80762811 12.90513167 -4 13 C-4.433125 13.474375 -4.86625 13.94875 -5.3125 14.4375 C-7.22498986 16.20832395 -8.49675476 16.46838297 -11 17 C-7.92902741 5.78332707 -7.92902741 5.78332707 -5 2 C-4.01 1.67 -3.02 1.34 -2 1 C-1.67 1.33 -1.34 1.66 -1 2 C-0.67 1.34 -0.34 0.68 0 0 Z " fill="#323031" transform="translate(97,40)"/>
<path d="M0 0 C4.62 0 9.24 0 14 0 C11.05567751 6.90783353 7.67195485 13.45168051 4 20 C2.68 20 1.36 20 0 20 C0 15.05 0 10.1 0 5 C0.66 4.67 1.32 4.34 2 4 C2.33 5.98 2.66 7.96 3 10 C3.33 9.01 3.66 8.02 4 7 C4.66 7 5.32 7 6 7 C6 6.01 6 5.02 6 4 C6.66 4 7.32 4 8 4 C8 3.01 8 2.02 8 1 C5.36 1 2.72 1 0 1 C0 0.67 0 0.34 0 0 Z " fill="#434343" transform="translate(112,96)"/>
<path d="M0 0 C1.25154214 3.75462642 0.42829882 5.50297949 -0.72265625 9.16015625 C-0.81417969 9.76730469 -0.90570312 10.37445313 -1 11 C-0.34 11.66 0.32 12.32 1 13 C1.33 13.66 1.66 14.32 2 15 C6.29 15 10.58 15 15 15 C15 15.99 15 16.98 15 18 C7.41 18 -0.18 18 -8 18 C-6.57691696 12.30766783 -4.2848541 4.2848541 0 0 Z " fill="#363636" transform="translate(9,98)"/>
<path d="M0 0 C2.15634036 2.15634036 3.47793991 4.37098712 5 7 C5.66 6.34 6.32 5.68 7 5 C7.33 5.99 7.66 6.98 8 8 C8.66 7.01 9.32 6.02 10 5 C10.66 5 11.32 5 12 5 C11.25 9.75 11.25 9.75 9 12 C8.01 12 7.02 12 6 12 C5.34 13.32 4.68 14.64 4 16 C3.87625 15.071875 3.87625 15.071875 3.75 14.125 C3.21868674 11.82530563 3.21868674 11.82530563 1.0625 11.0625 C-1 10 -1 10 -2.4375 7.6875 C-3 5 -3 5 -1.625 2.1875 C-1.08875 1.465625 -0.5525 0.74375 0 0 Z " fill="#6B6B6C" transform="translate(78,75)"/>
<path d="M0 0 C0.66 0 1.32 0 2 0 C2 0.66 2 1.32 2 2 C2.66 2 3.32 2 4 2 C4 2.66 4 3.32 4 4 C4.66 4 5.32 4 6 4 C5.625 6.4375 5.625 6.4375 5 9 C4.01 9.495 4.01 9.495 3 10 C3 9.34 3 8.68 3 8 C2.34 8 1.68 8 1 8 C1 8.66 1 9.32 1 10 C0.525625 10.45375 0.05125 10.9075 -0.4375 11.375 C-2.28239629 13.29369215 -2.54236921 14.40675888 -3 17 C-3.185625 17.9075 -3.37125 18.815 -3.5625 19.75 C-3.7790625 20.86375 -3.7790625 20.86375 -4 22 C-5.32 22 -6.64 22 -8 22 C-7.38764903 17.83601342 -5.90307429 14.73295341 -4 11 C-2.53938301 7.37601633 -1.23540907 3.70622722 0 0 Z " fill="#89898C" transform="translate(66,94)"/>
<path d="M0 0 C1.45806895 2.32760825 2.0797682 3.49421705 1.64453125 6.25390625 C1.36996094 7.01574219 1.09539063 7.77757813 0.8125 8.5625 C0.55082031 9.32691406 0.28914063 10.09132813 0.01953125 10.87890625 C-1.06235938 13.12973618 -2.02698997 14.47314802 -4 16 C-6.6875 15.6875 -6.6875 15.6875 -9 15 C-8.6875 12.125 -8.6875 12.125 -8 9 C-7.01 8.34 -6.02 7.68 -5 7 C-5 6.34 -5 5.68 -5 5 C-3.37446717 3.29319053 -1.70884005 1.62339805 0 0 Z " fill="#818181" transform="translate(56,92)"/>
<path d="M0 0 C0.14824219 0.60457031 0.29648438 1.20914063 0.44921875 1.83203125 C1.10070734 4.39640123 1.78798076 6.639752 3 9 C5.04105639 9.88693303 5.04105639 9.88693303 7 10 C6.67 11.65 6.34 13.3 6 15 C3 15 3 15 1.1875 14.375 C-1.91589169 13.84299 -4.11174181 14.88408206 -7 16 C-5.25 10.25 -5.25 10.25 -3 8 C-2.11221308 6.03511169 -2.11221308 6.03511169 -1.375 3.875 C-0.98441406 2.78832031 -0.98441406 2.78832031 -0.5859375 1.6796875 C-0.29589844 0.84824219 -0.29589844 0.84824219 0 0 Z " fill="#757577" transform="translate(75,76)"/>
<path d="M0 0 C0.99 0 1.98 0 3 0 C4.31626692 3.61973402 5 6.09567131 5 10 C4.34 10.66 3.68 11.32 3 12 C2.01 12 1.02 12 0 12 C0.33 10.35 0.66 8.7 1 7 C0.34 7 -0.32 7 -1 7 C-1.33 7.66 -1.66 8.32 -2 9 C-2.33 8.34 -2.66 7.68 -3 7 C-4.98 7.99 -4.98 7.99 -7 9 C-6.75 6.125 -6.75 6.125 -6 3 C-3.9375 1.625 -3.9375 1.625 -2 1 C-1.67 1.33 -1.34 1.66 -1 2 C-0.67 1.34 -0.34 0.68 0 0 Z " fill="#2D2C2C" transform="translate(97,40)"/>
<path d="M0 0 C3.32901247 2.21934164 3.75023244 3.34683329 5 7 C3.35 7.66 1.7 8.32 0 9 C0.33 9.99 0.66 10.98 1 12 C1.66 11.67 2.32 11.34 3 11 C2.67 12.65 2.34 14.3 2 16 C-1.04492309 14.98502564 -2.0298639 14.4178943 -4 12 C-4.875 10 -4.875 10 -5 8 C-3.6875 6.5625 -3.6875 6.5625 -2 5 C-0.80972016 2.40084462 -0.80972016 2.40084462 0 0 Z " fill="#181617" transform="translate(19,8)"/>
<path d="M0 0 C3.96 0 7.92 0 12 0 C12 1.65 12 3.3 12 5 C8.04 5 4.08 5 0 5 C0 3.35 0 1.7 0 0 Z " fill="#626262" transform="translate(28,65)"/>
<path d="M0 0 C4.62 0 9.24 0 14 0 C12.68 2.97 11.36 5.94 10 9 C9.01 9 8.02 9 7 9 C6.67 7.35 6.34 5.7 6 4 C6.66 4 7.32 4 8 4 C8 3.01 8 2.02 8 1 C5.36 1 2.72 1 0 1 C0 0.67 0 0.34 0 0 Z " fill="#2B2B2B" transform="translate(112,96)"/>
<path d="M0 0 C0.61875 0.7734375 0.61875 0.7734375 1.25 1.5625 C0.92 2.2225 0.59 2.8825 0.25 3.5625 C-0.41 3.5625 -1.07 3.5625 -1.75 3.5625 C-1.976875 4.366875 -2.20375 5.17125 -2.4375 6 C-3.0871875 7.2684375 -3.0871875 7.2684375 -3.75 8.5625 C-6.33203125 9.22265625 -6.33203125 9.22265625 -8.75 9.5625 C-8.35446947 7.9114597 -7.93286103 6.2666485 -7.5 4.625 C-7.26796875 3.70847656 -7.0359375 2.79195312 -6.796875 1.84765625 C-5.75 -0.4375 -5.75 -0.4375 -3.75 -1.34375 C-1.75 -1.4375 -1.75 -1.4375 0 0 Z " fill="#3F3F3F" transform="translate(94.75,47.4375)"/>
<path d="M0 0 C1.79244141 0.01740234 1.79244141 0.01740234 3.62109375 0.03515625 C5.41740234 0.04869141 5.41740234 0.04869141 7.25 0.0625 C8.17683594 0.07410156 9.10367188 0.08570313 10.05859375 0.09765625 C10.05859375 0.75765625 10.05859375 1.41765625 10.05859375 2.09765625 C11.04859375 2.42765625 12.03859375 2.75765625 13.05859375 3.09765625 C12.39859375 3.09765625 11.73859375 3.09765625 11.05859375 3.09765625 C10.72859375 3.75765625 10.39859375 4.41765625 10.05859375 5.09765625 C10.05859375 4.43765625 10.05859375 3.77765625 10.05859375 3.09765625 C4.88924485 3.50321756 4.88924485 3.50321756 0.05859375 5.09765625 C0.05859375 4.43765625 0.05859375 3.77765625 0.05859375 3.09765625 C-1.26140625 2.43765625 -2.58140625 1.77765625 -3.94140625 1.09765625 C-2.94140625 0.09765625 -2.94140625 0.09765625 0 0 Z " fill="#575757" transform="translate(30.94140625,49.90234375)"/>
<path d="M0 0 C0.66 0 1.32 0 2 0 C2.103125 0.639375 2.20625 1.27875 2.3125 1.9375 C2.539375 2.618125 2.76625 3.29875 3 4 C3.99 4.33 4.98 4.66 6 5 C6 5.99 6 6.98 6 8 C2.26512223 7.5020163 0.18762365 7.12508244 -3 5 C-2.67 3.68 -2.34 2.36 -2 1 C-1.34 1.33 -0.68 1.66 0 2 C0 1.34 0 0.68 0 0 Z " fill="#323131" transform="translate(22,57)"/>
<path d="M0 0 C1.73662334 3.22515763 2.8905928 6.51329166 4 10 C1.36 9.67 -1.28 9.34 -4 9 C-4 8.34 -4 7.68 -4 7 C-2.68 6.67 -1.36 6.34 0 6 C0 5.34 0 4.68 0 4 C-0.66 4 -1.32 4 -2 4 C-1.34 2.68 -0.68 1.36 0 0 Z " fill="#767676" transform="translate(45,90)"/>
<path d="M0 0 C0.2295711 3.36704285 0.33943529 5.41370268 -1.375 8.375 C-1.91125 8.91125 -2.4475 9.4475 -3 10 C-3.66 10 -4.32 10 -5 10 C-5.75 7.25 -5.75 7.25 -6 4 C-2.94736842 0 -2.94736842 0 0 0 Z " fill="#4A4A4A" transform="translate(96,65)"/>
<path d="M0 0 C0.66 0 1.32 0 2 0 C2.125 2.375 2.125 2.375 2 5 C1.34 5.66 0.68 6.32 0 7 C0 8.32 0 9.64 0 11 C-1.32 11 -2.64 11 -4 11 C-3.39301257 6.87248551 -1.96189209 3.6678852 0 0 Z " fill="#959595" transform="translate(62,105)"/>
<path d="M0 0 C4.875 4.625 4.875 4.625 6 8 C3.625 7.75 3.625 7.75 1 7 C-0.375 5.125 -0.375 5.125 -1 3 C-0.67 2.01 -0.34 1.02 0 0 Z " fill="#515151" transform="translate(50,56)"/>
<path d="M0 0 C0.66 0 1.32 0 2 0 C2 0.66 2 1.32 2 2 C2.66 2.33 3.32 2.66 4 3 C2.35 5.31 0.7 7.62 -1 10 C-1.66 9.34 -2.32 8.68 -3 8 C-1.125 2.25 -1.125 2.25 0 0 Z " fill="#3C3B3C" transform="translate(99,53)"/>
<path d="M0 0 C0.66 0 1.32 0 2 0 C1.63803085 2.67857172 1.26012724 4.60980914 -0.25 6.875 C-2 8 -2 8 -4.6875 7.6875 C-5.450625 7.460625 -6.21375 7.23375 -7 7 C-4.64046906 4.64046906 -3.22104383 4.50858587 0 4 C0 2.68 0 1.36 0 0 Z " fill="#969696" transform="translate(54,100)"/>
<path d="M0 0 C0.99 0.495 0.99 0.495 2 1 C2 2.32 2 3.64 2 5 C1.34 5 0.68 5 0 5 C0 3.35 0 1.7 0 0 Z M-2 4 C0 5.3125 0 5.3125 2 7 C2 7.99 2 8.98 2 10 C1.01 10 0.02 10 -1 10 C-1 9.01 -1 8.02 -1 7 C-1.66 7 -2.32 7 -3 7 C-2.67 6.01 -2.34 5.02 -2 4 Z " fill="#5C5C5C" transform="translate(46,65)"/>
<path d="M0 0 C0.33 0 0.66 0 1 0 C1.1953125 2.05078125 1.390625 4.1015625 1.5859375 6.15234375 C1.72257813 6.76207031 1.85921875 7.37179688 2 8 C2.66 8.33 3.32 8.66 4 9 C3.01 11.31 2.02 13.62 1 16 C0.67 16 0.34 16 0 16 C0 10.72 0 5.44 0 0 Z " fill="#403E3F" transform="translate(10,28)"/>
<path d="M0 0 C0.33 0.66 0.66 1.32 1 2 C2.32 2 3.64 2 5 2 C5 2.99 5 3.98 5 5 C2.69 5 0.38 5 -2 5 C-1.125 1.125 -1.125 1.125 0 0 Z " fill="#121212" transform="translate(3,111)"/>
<path d="M0 0 C2.64 0 5.28 0 8 0 C8 0.99 8 1.98 8 3 C5.36 3 2.72 3 0 3 C0 2.01 0 1.02 0 0 Z " fill="#494949" transform="translate(24,113)"/>
<path d="M0 0 C2.64 0 5.28 0 8 0 C8 0.99 8 1.98 8 3 C5.36 3 2.72 3 0 3 C0 2.01 0 1.02 0 0 Z " fill="#363636" transform="translate(16,113)"/>
<path d="M0 0 C2.64 0 5.28 0 8 0 C8 0.99 8 1.98 8 3 C5.36 3 2.72 3 0 3 C0 2.01 0 1.02 0 0 Z " fill="#232323" transform="translate(8,113)"/>
<path d="M0 0 C1.21386936 3.64160808 0.6674695 4.33165469 -0.9375 7.6875 C-1.31777344 8.49574219 -1.69804688 9.30398437 -2.08984375 10.13671875 C-2.39019531 10.75160156 -2.69054687 11.36648437 -3 12 C-3.66 11.01 -4.32 10.02 -5 9 C-4.3566152 7.686298 -3.71021785 6.37407102 -3.0625 5.0625 C-2.70285156 4.33160156 -2.34320313 3.60070312 -1.97265625 2.84765625 C-1 1 -1 1 0 0 Z " fill="#2B2B2B" transform="translate(9,98)"/>
<path d="M0 0 C4.62 0 9.24 0 14 0 C14 0.33 14 0.66 14 1 C10.92382812 1.29296875 10.92382812 1.29296875 7.84765625 1.5859375 C7.23792969 1.72257812 6.62820312 1.85921875 6 2 C5.67 2.66 5.34 3.32 5 4 C4.01 4 3.02 4 2 4 C2 3.01 2 2.02 2 1 C1.34 0.67 0.68 0.34 0 0 Z " fill="#343434" transform="translate(10,96)"/>
<path d="M0 0 C0 1.98 0 3.96 0 6 C-1.32 6.33 -2.64 6.66 -4 7 C-4.33 5.35 -4.66 3.7 -5 2 C-1.125 0 -1.125 0 0 0 Z " fill="#4D4D4D" transform="translate(46,64)"/>
<path d="M0 0 C0.99 0.33 1.98 0.66 3 1 C2.25 2.9375 2.25 2.9375 1 5 C-1.125 5.75 -1.125 5.75 -3 6 C-3.33 5.34 -3.66 4.68 -4 4 C-2.68 2.68 -1.36 1.36 0 0 Z " fill="#F1EFF0" transform="translate(28,23)"/>
<path d="M0 0 C2.31 0 4.62 0 7 0 C7 0.99 7 1.98 7 3 C4.36 3 1.72 3 -1 3 C-0.67 2.01 -0.34 1.02 0 0 Z " fill="#5E5E5E" transform="translate(33,113)"/>
<path d="M0 0 C0.66 0.33 1.32 0.66 2 1 C2.625 3.0625 2.625 3.0625 3 5 C1.02 5.66 -0.96 6.32 -3 7 C-1.125 1.125 -1.125 1.125 0 0 Z " fill="#818183" transform="translate(71,85)"/>
<path d="M0 0 C0.66 0 1.32 0 2 0 C2.33 0.66 2.66 1.32 3 2 C3.66 1.67 4.32 1.34 5 1 C4.67 2.65 4.34 4.3 4 6 C3.01 6.33 2.02 6.66 1 7 C0.67 4.69 0.34 2.38 0 0 Z " fill="#7D7D7D" transform="translate(80,96)"/>
<path d="M0 0 C2 1.8125 2 1.8125 4 4 C4 4.99 4 5.98 4 7 C3.01 6.67 2.02 6.34 1 6 C-1.14255793 6.38932856 -1.14255793 6.38932856 -3 7 C-2.01 4.69 -1.02 2.38 0 0 Z " fill="#333232" transform="translate(27,49)"/>
<path d="M0 0 C1.32 0.33 2.64 0.66 4 1 C4 3.31 4 5.62 4 8 C3.34 8 2.68 8 2 8 C2 7.34 2 6.68 2 6 C1.34 5.67 0.68 5.34 0 5 C0 3.35 0 1.7 0 0 Z " fill="#2A2829" transform="translate(21,49)"/>
<path d="M0 0 C0.66 0 1.32 0 2 0 C1.29445932 3.66881155 -0.27735506 6.70450534 -2 10 C-2.6875 8.375 -2.6875 8.375 -3 6 C-1.5625 2.75 -1.5625 2.75 0 0 Z " fill="#171516" transform="translate(107,40)"/>
<path d="M0 0 C0.66 1.32 1.32 2.64 2 4 C2.66 3.67 3.32 3.34 4 3 C3.67 4.65 3.34 6.3 3 8 C2.01 7.67 1.02 7.34 0 7 C-0.38133299 5.0085944 -0.71325582 3.00720923 -1 1 C-0.67 0.67 -0.34 0.34 0 0 Z " fill="#1D1B1C" transform="translate(18,16)"/>
<path d="M0 0 C1.98 0 3.96 0 6 0 C5.67 1.98 5.34 3.96 5 6 C4.67 5.01 4.34 4.02 4 3 C2.35 3 0.7 3 -1 3 C-0.67 2.01 -0.34 1.02 0 0 Z " fill="#F3F3F3" transform="translate(122,0)"/>
<path d="M0 0 C1.4540625 0.0309375 1.4540625 0.0309375 2.9375 0.0625 C2.2775 0.7225 1.6175 1.3825 0.9375 2.0625 C-0.0525 2.0625 -1.0425 2.0625 -2.0625 2.0625 C-2.0625 3.0525 -2.0625 4.0425 -2.0625 5.0625 C-3.0525 5.0625 -4.0425 5.0625 -5.0625 5.0625 C-3.9375 0.08035714 -3.9375 0.08035714 0 0 Z " fill="#7C7C7C" transform="translate(45.0625,110.9375)"/>
<path d="M0 0 C0.99 0 1.98 0 3 0 C1.79618552 2.49361571 0.54571278 4.68143083 -1 7 C-1.66 7 -2.32 7 -3 7 C-2.38722388 4.03824877 -1.74627478 2.61941217 0 0 Z " fill="#797979" transform="translate(84,87)"/>
<path d="M0 0 C0.99 0.33 1.98 0.66 3 1 C3 2.65 3 4.3 3 6 C1.68 6.33 0.36 6.66 -1 7 C-0.67 6.01 -0.34 5.02 0 4 C-0.33 3.01 -0.66 2.02 -1 1 C-0.67 0.67 -0.34 0.34 0 0 Z " fill="#676768" transform="translate(78,78)"/>
<path d="M0 0 C0.99 0.99 1.98 1.98 3 3 C2.67 3.66 2.34 4.32 2 5 C1.34 5 0.68 5 0 5 C-0.33 5.99 -0.66 6.98 -1 8 C-1.93065133 5.39417629 -2.14917407 4.35801776 -1.0625 1.75 C-0.711875 1.1725 -0.36125 0.595 0 0 Z " fill="#383838" transform="translate(93,46)"/>
<path d="M0 0 C1.98 0.99 1.98 0.99 4 2 C4 5 4 5 2 8 C1.34 5.36 0.68 2.72 0 0 Z " fill="#4C4C4C" transform="translate(116,103)"/>
<path d="M0 0 C0.66 0 1.32 0 2 0 C2.66 1.98 3.32 3.96 4 6 C3.01 6 2.02 6 1 6 C0.34 5.01 -0.32 4.02 -1 3 C-0.67 2.01 -0.34 1.02 0 0 Z " fill="#F2F0F1" transform="translate(105,49)"/>
</svg>
